<svg width="32" height="32" viewBox="0 0 32 32" fill="none" xmlns="http://www.w3.org/2000/svg">
  <defs>
    <linearGradient id="gradient" x1="0%" y1="0%" x2="100%" y2="100%">
      <stop offset="0%" style="stop-color:#3B82F6;stop-opacity:1" />
      <stop offset="100%" style="stop-color:#8B5CF6;stop-opacity:1" />
    </linearGradient>
  </defs>
  
  <!-- Background circle with gradient -->
  <circle cx="16" cy="16" r="15" fill="url(#gradient)" stroke="#ffffff" stroke-width="1"/>
  
  <!-- Brain icon -->
  <path d="M12 10C12 8.89543 12.8954 8 14 8H18C19.1046 8 20 8.89543 20 10V12C20 13.1046 19.1046 14 18 14H14C12.8954 14 12 13.1046 12 12V10Z" fill="white"/>
  <path d="M10 14C10 12.8954 10.8954 12 12 12H20C21.1046 12 22 12.8954 22 14V16C22 17.1046 21.1046 18 20 18H12C10.8954 18 10 17.1046 10 16V14Z" fill="white"/>
  <path d="M12 18C12 16.8954 12.8954 16 14 16H18C19.1046 16 20 16.8954 20 18V20C20 21.1046 19.1046 22 18 22H14C12.8954 22 12 21.1046 12 20V18Z" fill="white"/>
  
  <!-- Neural connections -->
  <circle cx="14" cy="11" r="1" fill="#3B82F6"/>
  <circle cx="18" cy="11" r="1" fill="#8B5CF6"/>
  <circle cx="14" cy="15" r="1" fill="#3B82F6"/>
  <circle cx="18" cy="15" r="1" fill="#8B5CF6"/>
  <circle cx="14" cy="19" r="1" fill="#3B82F6"/>
  <circle cx="18" cy="19" r="1" fill="#8B5CF6"/>
  
  <!-- Connection lines -->
  <path d="M15 11L17 11" stroke="white" stroke-width="0.5" stroke-linecap="round"/>
  <path d="M15 15L17 15" stroke="white" stroke-width="0.5" stroke-linecap="round"/>
  <path d="M15 19L17 19" stroke="white" stroke-width="0.5" stroke-linecap="round"/>
  <path d="M14 12L14 14" stroke="white" stroke-width="0.5" stroke-linecap="round"/>
  <path d="M18 12L18 14" stroke="white" stroke-width="0.5" stroke-linecap="round"/>
  <path d="M14 16L14 18" stroke="white" stroke-width="0.5" stroke-linecap="round"/>
  <path d="M18 16L18 18" stroke="white" stroke-width="0.5" stroke-linecap="round"/>
</svg> 